<svg xmlns="http://www.w3.org/2000/svg" viewBox="0 0 180 180">
<path d="M78.4 75.801H63.2v-66.8h15.2v23.8a12.964 12.964 0 0 1 1.753-2.242q1.552-1.615 3.897-3.158a15.463 15.463 0 0 1 5.7-2.25 21.281 21.281 0 0 1 3.95-.35q5.51 0 9.027 1.762a10.454 10.454 0 0 1 4.123 3.588 18.326 18.326 0 0 1 2.215 4.848q.709 2.341 1.042 5.187a46.774 46.774 0 0 1 .293 5.415v30.2H95.2v-26.4q0-3.5-.4-6.4a10.905 10.905 0 0 0-.501-2.129q-.468-1.331-1.278-2.32a6.762 6.762 0 0 0-.171-.201q-1.55-1.75-5.25-1.75a10.507 10.507 0 0 0-2.746.337 7.06 7.06 0 0 0-4.254 3.113 11.7 11.7 0 0 0-1.297 2.912q-.846 2.792-.899 6.79a40.787 40.787 0 0 0-.004.548Zm-62.6 0H0v-66.8h25.7a72.073 72.073 0 0 1 7.994.422 52.796 52.796 0 0 1 7.556 1.378 23.659 23.659 0 0 1 5.612 2.226 18.651 18.651 0 0 1 5.188 4.274 15.332 15.332 0 0 1 2.827 5.281Q56 26.108 56 30.801a30.774 30.774 0 0 1-.415 5.226q-.866 5.014-3.535 8.224a19.156 19.156 0 0 1-7.461 5.425 25.121 25.121 0 0 1-3.339 1.125q-6.743 1.772-15.279 1.799a83.654 83.654 0 0 1-.271.001h-9.9zm160.7 0h-9.7a58.133 58.133 0 0 1-3.568-.103q-3.657-.225-6.132-.947a9.164 9.164 0 0 1-2.672-1.242 7.605 7.605 0 0 1-2.478-2.858 11.725 11.725 0 0 1-.88-2.414q-.62-2.428-.666-5.873a41.909 41.909 0 0 1-.004-.563v-52.8h15.2v48.8a13.575 13.575 0 0 0 .077 1.506q.251 2.24 1.323 3.044a3.825 3.825 0 0 0 1.026.525q1.078.38 2.786.485a22.75 22.75 0 0 0 1.388.04h4.3zm-35.5 0h-15.3v-38h-9.4v-11.6H141Zm-125.2-53.5v17.2h10.4q3.7 0 6.65-.7t4.7-2.6a6.194 6.194 0 0 0 1.362-2.46q.285-.949.361-2.09a12.855 12.855 0 0 0 .027-.85q0-3.5-1.75-5.35a8.158 8.158 0 0 0-2.853-1.928 11.044 11.044 0 0 0-1.847-.572q-2.944-.649-6.636-.65a43.493 43.493 0 0 0-.014 0zm111.333-6.868a8.649 8.649 0 0 0 6.267 2.568 10.779 10.779 0 0 0 .177-.002 8.591 8.591 0 0 0 6.223-2.648 10.561 10.561 0 0 0 .02-.021 8.743 8.743 0 0 0 2.58-6.329 11.026 11.026 0 0 0-.001-.119 8.68 8.68 0 0 0-2.599-6.281 8.769 8.769 0 0 0-2.703-1.867A9.143 9.143 0 0 0 133.4.001a10.533 10.533 0 0 0-.029 0 8.744 8.744 0 0 0-6.321 2.6q-2.65 2.6-2.65 6.4a9.046 9.046 0 0 0 .404 2.73 8.835 8.835 0 0 0 2.246 3.62 10.658 10.658 0 0 0 .083.082z" vector-effect="non-scaling-stroke" transform="translate(1.94 51.493)" stroke-linecap="round" fill-rule="evenodd" font-size="12" stroke="#000" stroke-width=".945" style="stroke-width:.25mm"/>
       <style> 
        path { fill: #000; stroke: #fff; }
        @media (prefers-color-scheme: dark) {
            path { fill: #FFF; stroke: #000; }
        }
    </style>
</svg>


